<?xml version="1.0" encoding="utf-8" standalone="no"?>
<!DOCTYPE svg PUBLIC "-//W3C//DTD SVG 1.1//EN"
  "http://www.w3.org/Graphics/SVG/1.1/DTD/svg11.dtd">
<svg xmlns:xlink="http://www.w3.org/1999/xlink" width="504pt" height="504pt" viewBox="0 0 504 504" xmlns="http://www.w3.org/2000/svg" version="1.1">
 <metadata>
  <rdf:RDF xmlns:dc="http://purl.org/dc/elements/1.1/" xmlns:cc="http://creativecommons.org/ns#" xmlns:rdf="http://www.w3.org/1999/02/22-rdf-syntax-ns#">
   <cc:Work>
    <dc:type rdf:resource="http://purl.org/dc/dcmitype/StillImage"/>
    <dc:date>2025-07-29T23:53:05.865023</dc:date>
    <dc:format>image/svg+xml</dc:format>
    <dc:creator>
     <cc:Agent>
      <dc:title>Matplotlib v3.10.3, https://matplotlib.org/</dc:title>
     </cc:Agent>
    </dc:creator>
   </cc:Work>
  </rdf:RDF>
 </metadata>
 <defs>
  <style type="text/css">*{stroke-linejoin: round; stroke-linecap: butt}</style>
 </defs>
 <g id="figure_1">
  <g id="patch_1">
   <path d="M 0 504 
L 504 504 
L 504 0 
L 0 0 
z
" style="fill: #ffffff"/>
  </g>
  <g id="axes_1">
   <g id="patch_2">
    <path d="M 63 236.88 
L 240.545455 236.88 
L 240.545455 60.48 
L 63 60.48 
z
" style="fill: #ffffff"/>
   </g>
   <g id="matplotlib.axis_1">
    <g id="xtick_1">
     <g id="line2d_1">
      <defs>
       <path id="m35631ff7c6" d="M 0 0 
L 0 3.5 
" style="stroke: #000000; stroke-width: 0.8"/>
      </defs>
      <g>
       <use xlink:href="#m35631ff7c6" x="71.070248" y="236.88" style="stroke: #000000; stroke-width: 0.8"/>
      </g>
     </g>
     <g id="text_1">
      <!-- 0 -->
      <g transform="translate(67.888998 251.478437) scale(0.1 -0.1)">
       <defs>
        <path id="DejaVuSans-30" d="M 2034 4250 
Q 1547 4250 1301 3770 
Q 1056 3291 1056 2328 
Q 1056 1369 1301 889 
Q 1547 409 2034 409 
Q 2525 409 2770 889 
Q 3016 1369 3016 2328 
Q 3016 3291 2770 3770 
Q 2525 4250 2034 4250 
z
M 2034 4750 
Q 2819 4750 3233 4129 
Q 3647 3509 3647 2328 
Q 3647 1150 3233 529 
Q 2819 -91 2034 -91 
Q 1250 -91 836 529 
Q 422 1150 422 2328 
Q 422 3509 836 4129 
Q 1250 4750 2034 4750 
z
" transform="scale(0.015625)"/>
       </defs>
       <use xlink:href="#DejaVuSans-30"/>
      </g>
     </g>
    </g>
    <g id="xtick_2">
     <g id="line2d_2">
      <g>
       <use xlink:href="#m35631ff7c6" x="115.315028" y="236.88" style="stroke: #000000; stroke-width: 0.8"/>
      </g>
     </g>
     <g id="text_2">
      <!-- 250 -->
      <g transform="translate(105.771278 251.478437) scale(0.1 -0.1)">
       <defs>
        <path id="DejaVuSans-32" d="M 1228 531 
L 3431 531 
L 3431 0 
L 469 0 
L 469 531 
Q 828 903 1448 1529 
Q 2069 2156 2228 2338 
Q 2531 2678 2651 2914 
Q 2772 3150 2772 3378 
Q 2772 3750 2511 3984 
Q 2250 4219 1831 4219 
Q 1534 4219 1204 4116 
Q 875 4013 500 3803 
L 500 4441 
Q 881 4594 1212 4672 
Q 1544 4750 1819 4750 
Q 2544 4750 2975 4387 
Q 3406 4025 3406 3419 
Q 3406 3131 3298 2873 
Q 3191 2616 2906 2266 
Q 2828 2175 2409 1742 
Q 1991 1309 1228 531 
z
" transform="scale(0.015625)"/>
        <path id="DejaVuSans-35" d="M 691 4666 
L 3169 4666 
L 3169 4134 
L 1269 4134 
L 1269 2991 
Q 1406 3038 1543 3061 
Q 1681 3084 1819 3084 
Q 2600 3084 3056 2656 
Q 3513 2228 3513 1497 
Q 3513 744 3044 326 
Q 2575 -91 1722 -91 
Q 1428 -91 1123 -41 
Q 819 9 494 109 
L 494 744 
Q 775 591 1075 516 
Q 1375 441 1709 441 
Q 2250 441 2565 725 
Q 2881 1009 2881 1497 
Q 2881 1984 2565 2268 
Q 2250 2553 1709 2553 
Q 1456 2553 1204 2497 
Q 953 2441 691 2322 
L 691 4666 
z
" transform="scale(0.015625)"/>
       </defs>
       <use xlink:href="#DejaVuSans-32"/>
       <use xlink:href="#DejaVuSans-35" transform="translate(63.623047 0)"/>
       <use xlink:href="#DejaVuSans-30" transform="translate(127.246094 0)"/>
      </g>
     </g>
    </g>
    <g id="xtick_3">
     <g id="line2d_3">
      <g>
       <use xlink:href="#m35631ff7c6" x="159.559809" y="236.88" style="stroke: #000000; stroke-width: 0.8"/>
      </g>
     </g>
     <g id="text_3">
      <!-- 500 -->
      <g transform="translate(150.016059 251.478437) scale(0.1 -0.1)">
       <use xlink:href="#DejaVuSans-35"/>
       <use xlink:href="#DejaVuSans-30" transform="translate(63.623047 0)"/>
       <use xlink:href="#DejaVuSans-30" transform="translate(127.246094 0)"/>
      </g>
     </g>
    </g>
    <g id="xtick_4">
     <g id="line2d_4">
      <g>
       <use xlink:href="#m35631ff7c6" x="203.804589" y="236.88" style="stroke: #000000; stroke-width: 0.8"/>
      </g>
     </g>
     <g id="text_4">
      <!-- 750 -->
      <g transform="translate(194.260839 251.478437) scale(0.1 -0.1)">
       <defs>
        <path id="DejaVuSans-37" d="M 525 4666 
L 3525 4666 
L 3525 4397 
L 1831 0 
L 1172 0 
L 2766 4134 
L 525 4134 
L 525 4666 
z
" transform="scale(0.015625)"/>
       </defs>
       <use xlink:href="#DejaVuSans-37"/>
       <use xlink:href="#DejaVuSans-35" transform="translate(63.623047 0)"/>
       <use xlink:href="#DejaVuSans-30" transform="translate(127.246094 0)"/>
      </g>
     </g>
    </g>
   </g>
   <g id="matplotlib.axis_2">
    <g id="ytick_1">
     <g id="line2d_5">
      <defs>
       <path id="m133f9b71a7" d="M 0 0 
L -3.5 0 
" style="stroke: #000000; stroke-width: 0.8"/>
      </defs>
      <g>
       <use xlink:href="#m133f9b71a7" x="63" y="226.37556" style="stroke: #000000; stroke-width: 0.8"/>
      </g>
     </g>
     <g id="text_5">
      <!-- −1.0 -->
      <g transform="translate(31.717187 230.174779) scale(0.1 -0.1)">
       <defs>
        <path id="DejaVuSans-2212" d="M 678 2272 
L 4684 2272 
L 4684 1741 
L 678 1741 
L 678 2272 
z
" transform="scale(0.015625)"/>
        <path id="DejaVuSans-31" d="M 794 531 
L 1825 531 
L 1825 4091 
L 703 3866 
L 703 4441 
L 1819 4666 
L 2450 4666 
L 2450 531 
L 3481 531 
L 3481 0 
L 794 0 
L 794 531 
z
" transform="scale(0.015625)"/>
        <path id="DejaVuSans-2e" d="M 684 794 
L 1344 794 
L 1344 0 
L 684 0 
L 684 794 
z
" transform="scale(0.015625)"/>
       </defs>
       <use xlink:href="#DejaVuSans-2212"/>
       <use xlink:href="#DejaVuSans-31" transform="translate(83.789062 0)"/>
       <use xlink:href="#DejaVuSans-2e" transform="translate(147.412109 0)"/>
       <use xlink:href="#DejaVuSans-30" transform="translate(179.199219 0)"/>
      </g>
     </g>
    </g>
    <g id="ytick_2">
     <g id="line2d_6">
      <g>
       <use xlink:href="#m133f9b71a7" x="63" y="201.512981" style="stroke: #000000; stroke-width: 0.8"/>
      </g>
     </g>
     <g id="text_6">
      <!-- −0.8 -->
      <g transform="translate(31.717187 205.3122) scale(0.1 -0.1)">
       <defs>
        <path id="DejaVuSans-38" d="M 2034 2216 
Q 1584 2216 1326 1975 
Q 1069 1734 1069 1313 
Q 1069 891 1326 650 
Q 1584 409 2034 409 
Q 2484 409 2743 651 
Q 3003 894 3003 1313 
Q 3003 1734 2745 1975 
Q 2488 2216 2034 2216 
z
M 1403 2484 
Q 997 2584 770 2862 
Q 544 3141 544 3541 
Q 544 4100 942 4425 
Q 1341 4750 2034 4750 
Q 2731 4750 3128 4425 
Q 3525 4100 3525 3541 
Q 3525 3141 3298 2862 
Q 3072 2584 2669 2484 
Q 3125 2378 3379 2068 
Q 3634 1759 3634 1313 
Q 3634 634 3220 271 
Q 2806 -91 2034 -91 
Q 1263 -91 848 271 
Q 434 634 434 1313 
Q 434 1759 690 2068 
Q 947 2378 1403 2484 
z
M 1172 3481 
Q 1172 3119 1398 2916 
Q 1625 2713 2034 2713 
Q 2441 2713 2670 2916 
Q 2900 3119 2900 3481 
Q 2900 3844 2670 4047 
Q 2441 4250 2034 4250 
Q 1625 4250 1398 4047 
Q 1172 3844 1172 3481 
z
" transform="scale(0.015625)"/>
       </defs>
       <use xlink:href="#DejaVuSans-2212"/>
       <use xlink:href="#DejaVuSans-30" transform="translate(83.789062 0)"/>
       <use xlink:href="#DejaVuSans-2e" transform="translate(147.412109 0)"/>
       <use xlink:href="#DejaVuSans-38" transform="translate(179.199219 0)"/>
      </g>
     </g>
    </g>
    <g id="ytick_3">
     <g id="line2d_7">
      <g>
       <use xlink:href="#m133f9b71a7" x="63" y="176.650402" style="stroke: #000000; stroke-width: 0.8"/>
      </g>
     </g>
     <g id="text_7">
      <!-- −0.6 -->
      <g transform="translate(31.717187 180.44962) scale(0.1 -0.1)">
       <defs>
        <path id="DejaVuSans-36" d="M 2113 2584 
Q 1688 2584 1439 2293 
Q 1191 2003 1191 1497 
Q 1191 994 1439 701 
Q 1688 409 2113 409 
Q 2538 409 2786 701 
Q 3034 994 3034 1497 
Q 3034 2003 2786 2293 
Q 2538 2584 2113 2584 
z
M 3366 4563 
L 3366 3988 
Q 3128 4100 2886 4159 
Q 2644 4219 2406 4219 
Q 1781 4219 1451 3797 
Q 1122 3375 1075 2522 
Q 1259 2794 1537 2939 
Q 1816 3084 2150 3084 
Q 2853 3084 3261 2657 
Q 3669 2231 3669 1497 
Q 3669 778 3244 343 
Q 2819 -91 2113 -91 
Q 1303 -91 875 529 
Q 447 1150 447 2328 
Q 447 3434 972 4092 
Q 1497 4750 2381 4750 
Q 2619 4750 2861 4703 
Q 3103 4656 3366 4563 
z
" transform="scale(0.015625)"/>
       </defs>
       <use xlink:href="#DejaVuSans-2212"/>
       <use xlink:href="#DejaVuSans-30" transform="translate(83.789062 0)"/>
       <use xlink:href="#DejaVuSans-2e" transform="translate(147.412109 0)"/>
       <use xlink:href="#DejaVuSans-36" transform="translate(179.199219 0)"/>
      </g>
     </g>
    </g>
    <g id="ytick_4">
     <g id="line2d_8">
      <g>
       <use xlink:href="#m133f9b71a7" x="63" y="151.787822" style="stroke: #000000; stroke-width: 0.8"/>
      </g>
     </g>
     <g id="text_8">
      <!-- −0.4 -->
      <g transform="translate(31.717187 155.587041) scale(0.1 -0.1)">
       <defs>
        <path id="DejaVuSans-34" d="M 2419 4116 
L 825 1625 
L 2419 1625 
L 2419 4116 
z
M 2253 4666 
L 3047 4666 
L 3047 1625 
L 3713 1625 
L 3713 1100 
L 3047 1100 
L 3047 0 
L 2419 0 
L 2419 1100 
L 313 1100 
L 313 1709 
L 2253 4666 
z
" transform="scale(0.015625)"/>
       </defs>
       <use xlink:href="#DejaVuSans-2212"/>
       <use xlink:href="#DejaVuSans-30" transform="translate(83.789062 0)"/>
       <use xlink:href="#DejaVuSans-2e" transform="translate(147.412109 0)"/>
       <use xlink:href="#DejaVuSans-34" transform="translate(179.199219 0)"/>
      </g>
     </g>
    </g>
    <g id="ytick_5">
     <g id="line2d_9">
      <g>
       <use xlink:href="#m133f9b71a7" x="63" y="126.925243" style="stroke: #000000; stroke-width: 0.8"/>
      </g>
     </g>
     <g id="text_9">
      <!-- −0.2 -->
      <g transform="translate(31.717187 130.724462) scale(0.1 -0.1)">
       <use xlink:href="#DejaVuSans-2212"/>
       <use xlink:href="#DejaVuSans-30" transform="translate(83.789062 0)"/>
       <use xlink:href="#DejaVuSans-2e" transform="translate(147.412109 0)"/>
       <use xlink:href="#DejaVuSans-32" transform="translate(179.199219 0)"/>
      </g>
     </g>
    </g>
    <g id="ytick_6">
     <g id="line2d_10">
      <g>
       <use xlink:href="#m133f9b71a7" x="63" y="102.062664" style="stroke: #000000; stroke-width: 0.8"/>
      </g>
     </g>
     <g id="text_10">
      <!-- 0.0 -->
      <g transform="translate(40.096875 105.861883) scale(0.1 -0.1)">
       <use xlink:href="#DejaVuSans-30"/>
       <use xlink:href="#DejaVuSans-2e" transform="translate(63.623047 0)"/>
       <use xlink:href="#DejaVuSans-30" transform="translate(95.410156 0)"/>
      </g>
     </g>
    </g>
    <g id="ytick_7">
     <g id="line2d_11">
      <g>
       <use xlink:href="#m133f9b71a7" x="63" y="77.200085" style="stroke: #000000; stroke-width: 0.8"/>
      </g>
     </g>
     <g id="text_11">
      <!-- 0.2 -->
      <g transform="translate(40.096875 80.999303) scale(0.1 -0.1)">
       <use xlink:href="#DejaVuSans-30"/>
       <use xlink:href="#DejaVuSans-2e" transform="translate(63.623047 0)"/>
       <use xlink:href="#DejaVuSans-32" transform="translate(95.410156 0)"/>
      </g>
     </g>
    </g>
   </g>
   <g id="line2d_12">
    <path d="M 71.070248 130.65463 
L 74.786809 130.65463 
L 74.963789 133.140888 
L 75.140768 133.140888 
L 75.494726 130.65463 
L 75.671705 133.140888 
L 76.025663 133.140888 
L 76.73358 143.08592 
L 76.910559 148.058436 
L 77.087538 149.301564 
L 77.441496 149.301564 
L 77.795455 145.572178 
L 77.972434 144.329049 
L 78.149413 145.572178 
L 78.326392 148.058436 
L 78.503371 145.572178 
L 78.68035 145.572178 
L 78.857329 144.329049 
L 79.034308 144.329049 
L 79.211288 146.815307 
L 79.388267 144.329049 
L 79.565246 146.815307 
L 79.742225 141.842791 
L 79.919204 144.329049 
L 80.273162 144.329049 
L 80.450141 145.572178 
L 80.8041 143.08592 
L 81.158058 145.572178 
L 81.335037 145.572178 
L 81.512016 141.842791 
L 81.688995 145.572178 
L 81.865974 145.572178 
L 82.042953 144.329049 
L 82.219933 144.329049 
L 82.396912 146.815307 
L 82.573891 143.08592 
L 82.927849 146.815307 
L 83.281807 146.815307 
L 83.458786 158.003467 
L 83.635766 148.058436 
L 83.812745 148.058436 
L 83.989724 143.08592 
L 84.520661 162.975983 
L 84.69764 151.787822 
L 84.874619 150.544693 
L 85.051599 150.544693 
L 85.228578 151.787822 
L 85.405557 150.544693 
L 85.582536 151.787822 
L 85.759515 150.544693 
L 85.936494 150.544693 
L 86.113473 151.787822 
L 86.290452 149.301564 
L 86.644411 151.787822 
L 86.82139 150.544693 
L 86.998369 151.787822 
L 87.175348 146.815307 
L 87.352327 153.030951 
L 87.529306 153.030951 
L 87.706285 160.489725 
L 88.060244 150.544693 
L 88.237223 158.003467 
L 88.414202 149.301564 
L 88.76816 149.301564 
L 88.945139 150.544693 
L 89.122118 149.301564 
L 89.299097 151.787822 
L 89.830035 148.058436 
L 90.007014 148.058436 
L 90.183993 146.815307 
L 90.360972 148.058436 
L 90.537951 146.815307 
L 90.89191 146.815307 
L 91.068889 148.058436 
L 91.422847 153.030951 
L 91.599826 151.787822 
L 91.953784 146.815307 
L 92.130763 150.544693 
L 92.307742 150.544693 
L 92.484722 134.384017 
L 92.83868 144.329049 
L 93.015659 136.870275 
L 93.192638 139.356533 
L 93.369617 164.219112 
L 93.546596 126.925243 
L 93.723575 148.058436 
L 93.900555 140.599662 
L 94.254513 145.572178 
L 94.431492 150.544693 
L 94.78545 144.329049 
L 94.962429 149.301564 
L 95.139408 145.572178 
L 95.493367 151.787822 
L 95.670346 148.058436 
L 95.847325 146.815307 
L 96.024304 148.058436 
L 96.201283 148.058436 
L 96.732221 135.627146 
L 96.9092 133.140888 
L 97.086179 133.140888 
L 97.263158 134.384017 
L 97.440137 134.384017 
L 97.617116 141.842791 
L 97.794095 140.599662 
L 98.148054 155.517209 
L 98.325033 156.760338 
L 98.502012 143.08592 
L 98.85597 154.27408 
L 99.032949 177.893531 
L 99.209928 160.489725 
L 99.563886 199.026723 
L 99.740866 200.269852 
L 99.917845 228.861818 
L 100.094824 148.058436 
L 100.271803 138.113404 
L 100.448782 167.948499 
L 100.625761 171.677886 
L 100.80274 161.732854 
L 100.979719 162.975983 
L 101.156699 161.732854 
L 101.333678 164.219112 
L 101.687636 164.219112 
L 101.864615 165.462241 
L 102.218573 162.975983 
L 102.395552 160.489725 
L 102.572532 162.975983 
L 102.749511 161.732854 
L 102.92649 162.975983 
L 103.103469 161.732854 
L 103.280448 164.219112 
L 103.457427 159.246596 
L 103.988365 159.246596 
L 104.165344 161.732854 
L 104.519302 159.246596 
L 104.696281 160.489725 
L 104.87326 160.489725 
L 105.050239 150.544693 
L 105.404197 158.003467 
L 105.758156 158.003467 
L 105.935135 156.760338 
L 106.112114 158.003467 
L 106.289093 156.760338 
L 106.466072 160.489725 
L 106.643051 160.489725 
L 106.82003 159.246596 
L 106.99701 159.246596 
L 107.173989 158.003467 
L 107.350968 159.246596 
L 107.527947 159.246596 
L 107.704926 161.732854 
L 107.881905 159.246596 
L 108.058884 160.489725 
L 108.412843 156.760338 
L 109.651696 156.760338 
L 109.828676 158.003467 
L 110.005655 156.760338 
L 110.536592 156.760338 
L 110.713571 158.003467 
L 110.89055 146.815307 
L 111.067529 158.003467 
L 111.244508 158.003467 
L 111.421488 156.760338 
L 111.598467 194.054207 
L 111.775446 139.356533 
L 111.952425 171.677886 
L 112.129404 78.443214 
L 112.306383 156.760338 
L 112.483362 161.732854 
L 112.660341 115.737082 
L 112.837321 175.407273 
L 113.0143 94.60389 
L 113.191279 109.521438 
L 113.368258 136.870275 
L 113.545237 130.65463 
L 113.722216 118.22334 
L 113.899195 175.407273 
L 114.076174 161.732854 
L 114.253154 186.595433 
L 114.430133 160.489725 
L 114.607112 207.728626 
L 114.784091 170.434757 
L 114.96107 156.760338 
L 115.138049 159.246596 
L 115.315028 199.026723 
L 115.492007 174.164144 
L 115.668987 180.379789 
L 115.845966 176.650402 
L 116.199924 181.622918 
L 116.376903 159.246596 
L 116.730861 150.544693 
L 116.90784 115.737082 
L 117.084819 146.815307 
L 117.261799 120.709598 
L 117.438778 129.411501 
L 117.615757 159.246596 
L 118.146694 135.627146 
L 118.323673 184.109175 
L 118.500652 135.627146 
L 118.677632 139.356533 
L 118.854611 186.595433 
L 119.03159 175.407273 
L 119.208569 177.893531 
L 119.385548 177.893531 
L 119.562527 146.815307 
L 119.739506 156.760338 
L 119.916485 133.140888 
L 120.093465 136.870275 
L 120.270444 131.897759 
L 120.447423 138.113404 
L 120.624402 139.356533 
L 120.801381 153.030951 
L 120.97836 143.08592 
L 121.332318 165.462241 
L 121.509298 172.921015 
L 121.686277 141.842791 
L 121.863256 83.415729 
L 122.040235 87.145116 
L 122.217214 79.686342 
L 122.394193 85.901987 
L 122.571172 68.498182 
L 122.748151 82.1726 
L 123.10211 92.117632 
L 123.279089 109.521438 
L 123.456068 113.250825 
L 123.633047 82.1726 
L 123.810026 124.438985 
L 124.163984 112.007696 
L 124.340963 125.682114 
L 124.517943 112.007696 
L 124.694922 109.521438 
L 124.871901 125.682114 
L 125.04888 130.65463 
L 125.402838 124.438985 
L 125.579817 145.572178 
L 125.756796 139.356533 
L 125.933776 144.329049 
L 126.110755 141.842791 
L 126.287734 150.544693 
L 126.464713 166.70537 
L 126.641692 126.925243 
L 126.818671 123.195856 
L 126.99565 135.627146 
L 127.349609 104.548922 
L 127.526588 124.438985 
L 127.703567 120.709598 
L 127.880546 120.709598 
L 128.057525 129.411501 
L 128.234504 119.466469 
L 128.411483 130.65463 
L 128.588462 131.897759 
L 128.765441 149.301564 
L 128.942421 143.08592 
L 129.296379 143.08592 
L 129.473358 141.842791 
L 129.650337 143.08592 
L 129.827316 145.572178 
L 130.004295 144.329049 
L 130.181274 145.572178 
L 130.358254 145.572178 
L 130.535233 144.329049 
L 130.889191 140.599662 
L 131.06617 145.572178 
L 131.243149 116.980211 
L 131.597107 125.682114 
L 131.774087 116.980211 
L 131.951066 116.980211 
L 132.305024 130.65463 
L 132.482003 130.65463 
L 132.658982 136.870275 
L 132.835961 130.65463 
L 133.01294 136.870275 
L 133.18992 128.168372 
L 133.543878 133.140888 
L 133.720857 130.65463 
L 133.897836 130.65463 
L 134.074815 131.897759 
L 134.251794 130.65463 
L 134.428773 131.897759 
L 134.605753 130.65463 
L 134.959711 130.65463 
L 135.13669 131.897759 
L 135.313669 130.65463 
L 135.490648 130.65463 
L 135.667627 131.897759 
L 136.021585 131.897759 
L 136.198565 130.65463 
L 136.375544 131.897759 
L 136.552523 130.65463 
L 136.729502 130.65463 
L 136.906481 131.897759 
L 137.08346 131.897759 
L 137.260439 130.65463 
L 137.437418 131.897759 
L 137.614398 130.65463 
L 137.791377 131.897759 
L 137.968356 130.65463 
L 138.145335 131.897759 
L 138.499293 131.897759 
L 138.676272 130.65463 
L 138.853251 131.897759 
L 139.030231 129.411501 
L 139.20721 131.897759 
L 139.561168 131.897759 
L 139.738147 130.65463 
L 139.915126 131.897759 
L 140.446064 131.897759 
L 140.623043 130.65463 
L 140.800022 131.897759 
L 140.977001 130.65463 
L 141.15398 131.897759 
L 141.330959 130.65463 
L 141.507938 131.897759 
L 141.861896 131.897759 
L 142.215855 129.411501 
L 143.10075 129.411501 
L 143.277729 131.897759 
L 143.454709 130.65463 
L 145.401479 130.65463 
L 145.578458 131.897759 
L 145.755437 131.897759 
L 145.932416 130.65463 
L 146.109395 131.897759 
L 146.286375 130.65463 
L 146.463354 131.897759 
L 146.640333 130.65463 
L 146.817312 131.897759 
L 146.994291 130.65463 
L 147.17127 131.897759 
L 147.348249 130.65463 
L 147.525228 130.65463 
L 147.702207 131.897759 
L 148.056166 131.897759 
L 148.233145 130.65463 
L 148.410124 130.65463 
L 148.587103 131.897759 
L 148.941061 131.897759 
L 149.11804 130.65463 
L 149.29502 131.897759 
L 149.471999 131.897759 
L 149.648978 130.65463 
L 149.825957 131.897759 
L 150.002936 131.897759 
L 150.179915 130.65463 
L 150.533873 130.65463 
L 150.710853 131.897759 
L 150.887832 131.897759 
L 151.064811 130.65463 
L 151.24179 131.897759 
L 151.595748 131.897759 
L 151.772727 130.65463 
L 152.657623 130.65463 
L 152.834602 131.897759 
L 153.011581 130.65463 
L 153.18856 131.897759 
L 153.365539 130.65463 
L 153.542518 131.897759 
L 153.719498 130.65463 
L 153.896477 131.897759 
L 154.073456 130.65463 
L 154.250435 131.897759 
L 154.427414 131.897759 
L 154.604393 133.140888 
L 154.781372 131.897759 
L 154.958351 133.140888 
L 155.135331 130.65463 
L 155.31231 131.897759 
L 155.489289 130.65463 
L 155.666268 131.897759 
L 156.374184 131.897759 
L 156.551164 133.140888 
L 156.728143 130.65463 
L 156.905122 134.384017 
L 157.25908 131.897759 
L 157.436059 133.140888 
L 157.613038 131.897759 
L 157.790017 133.140888 
L 158.320955 133.140888 
L 158.497934 131.897759 
L 158.674913 131.897759 
L 158.851892 134.384017 
L 159.028871 131.897759 
L 159.20585 131.897759 
L 159.382829 133.140888 
L 159.559809 131.897759 
L 159.736788 131.897759 
L 159.913767 133.140888 
L 160.090746 131.897759 
L 160.267725 133.140888 
L 160.444704 131.897759 
L 160.621683 131.897759 
L 160.798662 133.140888 
L 160.975642 131.897759 
L 161.3296 131.897759 
L 161.506579 133.140888 
L 161.683558 131.897759 
L 161.860537 131.897759 
L 162.037516 133.140888 
L 162.214495 131.897759 
L 162.922412 131.897759 
L 163.099391 133.140888 
L 163.27637 131.897759 
L 168.762723 131.897759 
L 168.939702 133.140888 
L 169.116681 131.897759 
L 170.178556 131.897759 
L 170.355535 133.140888 
L 170.532514 131.897759 
L 170.709493 133.140888 
L 170.886472 131.897759 
L 189.46928 131.897759 
L 189.646259 133.140888 
L 189.823238 131.897759 
L 200.972923 131.897759 
L 201.149902 133.140888 
L 201.326881 131.897759 
L 201.857819 131.897759 
L 202.034798 133.140888 
L 202.211777 131.897759 
L 203.62761 131.897759 
L 203.804589 133.140888 
L 203.981568 131.897759 
L 204.158547 133.140888 
L 204.335526 133.140888 
L 204.512505 130.65463 
L 204.689485 131.897759 
L 205.57438 131.897759 
L 205.751359 133.140888 
L 205.928338 131.897759 
L 209.467921 131.897759 
L 209.6449 130.65463 
L 209.821879 133.140888 
L 209.998858 131.897759 
L 216.901044 131.897759 
L 217.078023 130.65463 
L 217.255002 131.897759 
L 232.475207 131.897759 
L 232.475207 131.897759 
" clip-path="url(#pa1b9de6b0f)" style="fill: none; stroke: #ff0000; stroke-width: 1.5; stroke-linecap: square"/>
   </g>
   <g id="patch_3">
    <path d="M 63 236.88 
L 63 60.48 
" style="fill: none; stroke: #000000; stroke-width: 0.8; stroke-linejoin: miter; stroke-linecap: square"/>
   </g>
   <g id="patch_4">
    <path d="M 240.545455 236.88 
L 240.545455 60.48 
" style="fill: none; stroke: #000000; stroke-width: 0.8; stroke-linejoin: miter; stroke-linecap: square"/>
   </g>
   <g id="patch_5">
    <path d="M 63 236.88 
L 240.545455 236.88 
" style="fill: none; stroke: #000000; stroke-width: 0.8; stroke-linejoin: miter; stroke-linecap: square"/>
   </g>
   <g id="patch_6">
    <path d="M 63 60.48 
L 240.545455 60.48 
" style="fill: none; stroke: #000000; stroke-width: 0.8; stroke-linejoin: miter; stroke-linecap: square"/>
   </g>
  </g>
  <g id="axes_2">
   <g id="patch_7">
    <path d="M 276.054545 236.88 
L 453.6 236.88 
L 453.6 60.48 
L 276.054545 60.48 
z
" style="fill: #ffffff"/>
   </g>
   <g id="matplotlib.axis_3">
    <g id="xtick_5">
     <g id="line2d_13">
      <g>
       <use xlink:href="#m35631ff7c6" x="284.124793" y="236.88" style="stroke: #000000; stroke-width: 0.8"/>
      </g>
     </g>
     <g id="text_12">
      <!-- 0 -->
      <g transform="translate(280.943543 251.478437) scale(0.1 -0.1)">
       <use xlink:href="#DejaVuSans-30"/>
      </g>
     </g>
    </g>
    <g id="xtick_6">
     <g id="line2d_14">
      <g>
       <use xlink:href="#m35631ff7c6" x="328.369574" y="236.88" style="stroke: #000000; stroke-width: 0.8"/>
      </g>
     </g>
     <g id="text_13">
      <!-- 250 -->
      <g transform="translate(318.825824 251.478437) scale(0.1 -0.1)">
       <use xlink:href="#DejaVuSans-32"/>
       <use xlink:href="#DejaVuSans-35" transform="translate(63.623047 0)"/>
       <use xlink:href="#DejaVuSans-30" transform="translate(127.246094 0)"/>
      </g>
     </g>
    </g>
    <g id="xtick_7">
     <g id="line2d_15">
      <g>
       <use xlink:href="#m35631ff7c6" x="372.614354" y="236.88" style="stroke: #000000; stroke-width: 0.8"/>
      </g>
     </g>
     <g id="text_14">
      <!-- 500 -->
      <g transform="translate(363.070604 251.478437) scale(0.1 -0.1)">
       <use xlink:href="#DejaVuSans-35"/>
       <use xlink:href="#DejaVuSans-30" transform="translate(63.623047 0)"/>
       <use xlink:href="#DejaVuSans-30" transform="translate(127.246094 0)"/>
      </g>
     </g>
    </g>
    <g id="xtick_8">
     <g id="line2d_16">
      <g>
       <use xlink:href="#m35631ff7c6" x="416.859134" y="236.88" style="stroke: #000000; stroke-width: 0.8"/>
      </g>
     </g>
     <g id="text_15">
      <!-- 750 -->
      <g transform="translate(407.315384 251.478437) scale(0.1 -0.1)">
       <use xlink:href="#DejaVuSans-37"/>
       <use xlink:href="#DejaVuSans-35" transform="translate(63.623047 0)"/>
       <use xlink:href="#DejaVuSans-30" transform="translate(127.246094 0)"/>
      </g>
     </g>
    </g>
   </g>
   <g id="matplotlib.axis_4">
    <g id="ytick_8">
     <g id="line2d_17">
      <g>
       <use xlink:href="#m133f9b71a7" x="276.054545" y="230.306536" style="stroke: #000000; stroke-width: 0.8"/>
      </g>
     </g>
     <g id="text_16">
      <!-- −0.8 -->
      <g transform="translate(244.771733 234.105754) scale(0.1 -0.1)">
       <use xlink:href="#DejaVuSans-2212"/>
       <use xlink:href="#DejaVuSans-30" transform="translate(83.789062 0)"/>
       <use xlink:href="#DejaVuSans-2e" transform="translate(147.412109 0)"/>
       <use xlink:href="#DejaVuSans-38" transform="translate(179.199219 0)"/>
      </g>
     </g>
    </g>
    <g id="ytick_9">
     <g id="line2d_18">
      <g>
       <use xlink:href="#m133f9b71a7" x="276.054545" y="201.412187" style="stroke: #000000; stroke-width: 0.8"/>
      </g>
     </g>
     <g id="text_17">
      <!-- −0.6 -->
      <g transform="translate(244.771733 205.211405) scale(0.1 -0.1)">
       <use xlink:href="#DejaVuSans-2212"/>
       <use xlink:href="#DejaVuSans-30" transform="translate(83.789062 0)"/>
       <use xlink:href="#DejaVuSans-2e" transform="translate(147.412109 0)"/>
       <use xlink:href="#DejaVuSans-36" transform="translate(179.199219 0)"/>
      </g>
     </g>
    </g>
    <g id="ytick_10">
     <g id="line2d_19">
      <g>
       <use xlink:href="#m133f9b71a7" x="276.054545" y="172.517838" style="stroke: #000000; stroke-width: 0.8"/>
      </g>
     </g>
     <g id="text_18">
      <!-- −0.4 -->
      <g transform="translate(244.771733 176.317057) scale(0.1 -0.1)">
       <use xlink:href="#DejaVuSans-2212"/>
       <use xlink:href="#DejaVuSans-30" transform="translate(83.789062 0)"/>
       <use xlink:href="#DejaVuSans-2e" transform="translate(147.412109 0)"/>
       <use xlink:href="#DejaVuSans-34" transform="translate(179.199219 0)"/>
      </g>
     </g>
    </g>
    <g id="ytick_11">
     <g id="line2d_20">
      <g>
       <use xlink:href="#m133f9b71a7" x="276.054545" y="143.623489" style="stroke: #000000; stroke-width: 0.8"/>
      </g>
     </g>
     <g id="text_19">
      <!-- −0.2 -->
      <g transform="translate(244.771733 147.422708) scale(0.1 -0.1)">
       <use xlink:href="#DejaVuSans-2212"/>
       <use xlink:href="#DejaVuSans-30" transform="translate(83.789062 0)"/>
       <use xlink:href="#DejaVuSans-2e" transform="translate(147.412109 0)"/>
       <use xlink:href="#DejaVuSans-32" transform="translate(179.199219 0)"/>
      </g>
     </g>
    </g>
    <g id="ytick_12">
     <g id="line2d_21">
      <g>
       <use xlink:href="#m133f9b71a7" x="276.054545" y="114.72914" style="stroke: #000000; stroke-width: 0.8"/>
      </g>
     </g>
     <g id="text_20">
      <!-- 0.0 -->
      <g transform="translate(253.15142 118.528359) scale(0.1 -0.1)">
       <use xlink:href="#DejaVuSans-30"/>
       <use xlink:href="#DejaVuSans-2e" transform="translate(63.623047 0)"/>
       <use xlink:href="#DejaVuSans-30" transform="translate(95.410156 0)"/>
      </g>
     </g>
    </g>
    <g id="ytick_13">
     <g id="line2d_22">
      <g>
       <use xlink:href="#m133f9b71a7" x="276.054545" y="85.834791" style="stroke: #000000; stroke-width: 0.8"/>
      </g>
     </g>
     <g id="text_21">
      <!-- 0.2 -->
      <g transform="translate(253.15142 89.63401) scale(0.1 -0.1)">
       <use xlink:href="#DejaVuSans-30"/>
       <use xlink:href="#DejaVuSans-2e" transform="translate(63.623047 0)"/>
       <use xlink:href="#DejaVuSans-32" transform="translate(95.410156 0)"/>
      </g>
     </g>
    </g>
   </g>
   <g id="line2d_23">
    <path d="M 284.124793 130.621032 
L 286.77948 130.621032 
L 286.956459 129.176314 
L 287.487397 129.176314 
L 287.664376 130.621032 
L 287.841355 129.176314 
L 288.372292 129.176314 
L 288.549271 130.621032 
L 288.726251 129.176314 
L 289.257188 129.176314 
L 289.788125 124.842162 
L 290.142084 124.842162 
L 290.319063 121.952727 
L 290.496042 121.952727 
L 290.85 119.063292 
L 291.026979 123.397445 
L 291.203958 123.397445 
L 291.380937 120.50801 
L 291.557916 121.952727 
L 292.088854 121.952727 
L 292.265833 123.397445 
L 292.619791 119.063292 
L 292.79677 123.397445 
L 293.681666 123.397445 
L 293.858645 124.842162 
L 294.035624 121.952727 
L 294.212603 123.397445 
L 294.389582 120.50801 
L 294.566562 134.955184 
L 294.743541 123.397445 
L 295.274478 123.397445 
L 295.451457 124.842162 
L 295.628436 127.731597 
L 295.982395 124.842162 
L 296.336353 134.955184 
L 296.513332 126.28688 
L 296.690311 124.842162 
L 296.86729 130.621032 
L 297.044269 140.734054 
L 297.221248 132.065749 
L 297.398227 129.176314 
L 297.575207 142.178771 
L 298.106144 137.844619 
L 298.460102 137.844619 
L 298.637081 139.289337 
L 298.81406 139.289337 
L 298.99104 129.176314 
L 299.344998 142.178771 
L 299.698956 139.289337 
L 299.875935 140.734054 
L 300.052914 139.289337 
L 300.229893 130.621032 
L 300.406873 142.178771 
L 300.583852 142.178771 
L 300.760831 137.844619 
L 300.93781 139.289337 
L 301.114789 142.178771 
L 301.291768 132.065749 
L 301.468747 136.399902 
L 301.645726 136.399902 
L 301.822706 137.844619 
L 301.999685 136.399902 
L 302.176664 137.844619 
L 302.353643 134.955184 
L 302.530622 158.070663 
L 302.707601 132.065749 
L 303.061559 136.399902 
L 303.769476 136.399902 
L 303.946455 140.734054 
L 304.123434 132.065749 
L 304.477392 140.734054 
L 304.831351 132.065749 
L 305.00833 133.510467 
L 305.185309 139.289337 
L 305.362288 139.289337 
L 305.539267 149.402359 
L 305.716246 139.289337 
L 305.893225 165.294251 
L 306.070204 139.289337 
L 306.247184 139.289337 
L 306.424163 129.176314 
L 306.601142 140.734054 
L 306.778121 168.183686 
L 306.9551 146.512924 
L 307.309058 140.734054 
L 307.486037 133.510467 
L 307.663017 137.844619 
L 307.839996 139.289337 
L 308.016975 137.844619 
L 308.193954 139.289337 
L 308.370933 142.178771 
L 308.547912 136.399902 
L 308.724891 139.289337 
L 308.90187 137.844619 
L 309.078849 137.844619 
L 309.255829 140.734054 
L 309.432808 152.291794 
L 309.609787 134.955184 
L 309.786766 134.955184 
L 309.963745 132.065749 
L 310.140724 132.065749 
L 310.317703 134.955184 
L 310.494682 130.621032 
L 310.671662 129.176314 
L 310.848641 130.621032 
L 311.202599 123.397445 
L 311.379578 121.952727 
L 311.556557 142.178771 
L 311.733536 124.842162 
L 311.910515 136.399902 
L 312.087495 113.284423 
L 312.441453 194.1886 
L 312.618432 98.837248 
L 312.97239 159.515381 
L 313.326348 85.834791 
L 313.503328 137.844619 
L 313.680307 129.176314 
L 314.034265 124.842162 
L 314.211244 124.842162 
L 314.742181 117.618575 
L 315.09614 114.72914 
L 315.273119 120.50801 
L 315.450098 120.50801 
L 315.804056 117.618575 
L 315.981035 117.618575 
L 316.158014 116.173857 
L 316.334993 116.173857 
L 316.511973 120.50801 
L 316.688952 120.50801 
L 316.865931 117.618575 
L 317.04291 120.50801 
L 317.396868 113.284423 
L 317.573847 113.284423 
L 317.750826 117.618575 
L 317.927806 116.173857 
L 318.104785 121.952727 
L 318.281764 121.952727 
L 318.458743 120.50801 
L 318.635722 121.952727 
L 318.812701 121.952727 
L 318.98968 120.50801 
L 319.520618 124.842162 
L 319.697597 124.842162 
L 319.874576 121.952727 
L 320.051555 123.397445 
L 320.228534 123.397445 
L 320.405513 124.842162 
L 320.759472 121.952727 
L 320.936451 123.397445 
L 322.175304 123.397445 
L 322.352284 124.842162 
L 322.529263 123.397445 
L 322.706242 123.397445 
L 322.883221 124.842162 
L 323.0602 123.397445 
L 323.237179 124.842162 
L 323.414158 124.842162 
L 323.591137 123.397445 
L 323.768117 123.397445 
L 323.945096 120.50801 
L 324.122075 121.952727 
L 324.299054 121.952727 
L 324.476033 132.065749 
L 324.653012 68.498182 
L 324.829991 139.289337 
L 325.00697 145.068206 
L 325.18395 228.861818 
L 325.360929 130.621032 
L 325.537908 139.289337 
L 325.891866 126.28688 
L 326.245824 84.390074 
L 326.422803 90.168943 
L 326.776762 127.731597 
L 326.953741 98.837248 
L 327.13072 91.613661 
L 327.307699 98.837248 
L 327.484678 119.063292 
L 327.661657 90.168943 
L 327.838636 114.72914 
L 328.015615 119.063292 
L 328.192595 117.618575 
L 328.369574 82.945356 
L 328.546553 113.284423 
L 328.723532 103.1714 
L 328.900511 110.394988 
L 329.07749 90.168943 
L 329.431448 137.844619 
L 329.608428 172.517838 
L 329.785407 169.628403 
L 329.962386 181.186143 
L 330.316344 111.839705 
L 330.493323 77.166486 
L 330.670302 120.50801 
L 330.847281 126.28688 
L 331.024261 114.72914 
L 331.20124 123.397445 
L 331.378219 100.281966 
L 331.555198 126.28688 
L 331.732177 111.839705 
L 331.909156 107.505553 
L 332.086135 106.060835 
L 332.440094 106.060835 
L 332.617073 126.28688 
L 332.794052 91.613661 
L 332.971031 136.399902 
L 333.14801 145.068206 
L 333.501968 139.289337 
L 333.678947 147.957641 
L 333.855926 137.844619 
L 334.032906 162.404816 
L 334.209885 166.738968 
L 334.386864 168.183686 
L 334.740822 137.844619 
L 334.917801 159.515381 
L 335.271759 159.515381 
L 335.448739 150.847076 
L 335.625718 153.736511 
L 335.979676 165.294251 
L 336.156655 153.736511 
L 336.510613 110.394988 
L 336.687592 129.176314 
L 336.864572 97.392531 
L 337.041551 120.50801 
L 337.21853 127.731597 
L 337.749467 107.505553 
L 337.926446 111.839705 
L 338.103425 142.178771 
L 338.280405 143.623489 
L 338.457384 165.294251 
L 338.634363 130.621032 
L 338.811342 133.510467 
L 338.988321 130.621032 
L 339.342279 111.839705 
L 339.696237 149.402359 
L 339.873217 142.178771 
L 340.050196 159.515381 
L 340.227175 155.181229 
L 340.404154 139.289337 
L 340.581133 150.847076 
L 340.758112 136.399902 
L 340.935091 136.399902 
L 341.11207 158.070663 
L 341.28905 139.289337 
L 341.466029 139.289337 
L 341.643008 136.399902 
L 341.819987 137.844619 
L 341.996966 134.955184 
L 342.350924 134.955184 
L 342.527903 132.065749 
L 342.704883 132.065749 
L 342.881862 130.621032 
L 343.058841 133.510467 
L 343.23582 133.510467 
L 343.412799 132.065749 
L 343.589778 133.510467 
L 343.766757 126.28688 
L 343.943736 134.955184 
L 344.120716 133.510467 
L 344.297695 127.731597 
L 344.474674 130.621032 
L 344.828632 130.621032 
L 345.18259 126.28688 
L 345.359569 104.616118 
L 345.536548 104.616118 
L 345.713528 120.50801 
L 345.890507 103.1714 
L 346.067486 108.95027 
L 346.598423 108.95027 
L 346.775402 107.505553 
L 346.952381 107.505553 
L 347.129361 106.060835 
L 347.30634 107.505553 
L 347.660298 104.616118 
L 348.545194 104.616118 
L 348.722173 107.505553 
L 349.076131 103.1714 
L 349.25311 106.060835 
L 349.430089 104.616118 
L 349.784047 104.616118 
L 349.961027 103.1714 
L 350.138006 104.616118 
L 350.314985 104.616118 
L 350.491964 106.060835 
L 350.668943 106.060835 
L 350.845922 107.505553 
L 351.19988 107.505553 
L 351.37686 106.060835 
L 351.553839 107.505553 
L 351.730818 106.060835 
L 352.084776 106.060835 
L 352.261755 104.616118 
L 352.615713 104.616118 
L 352.969672 101.726683 
L 353.146651 101.726683 
L 353.32363 103.1714 
L 353.500609 103.1714 
L 353.677588 101.726683 
L 353.854567 103.1714 
L 354.031546 101.726683 
L 354.562484 101.726683 
L 354.739463 100.281966 
L 354.916442 101.726683 
L 355.093421 100.281966 
L 355.2704 101.726683 
L 356.686233 101.726683 
L 356.863212 100.281966 
L 357.748108 100.281966 
L 357.925087 98.837248 
L 358.456024 98.837248 
L 358.633003 100.281966 
L 359.163941 100.281966 
L 359.34092 98.837248 
L 359.517899 100.281966 
L 359.871857 97.392531 
L 360.048836 97.392531 
L 360.225816 98.837248 
L 360.402795 97.392531 
L 360.579774 98.837248 
L 360.756753 97.392531 
L 361.464669 97.392531 
L 361.641649 98.837248 
L 361.818628 97.392531 
L 362.172586 97.392531 
L 362.349565 98.837248 
L 362.526544 97.392531 
L 362.703523 98.837248 
L 362.880502 97.392531 
L 363.588419 97.392531 
L 363.765398 98.837248 
L 363.942377 97.392531 
L 364.119356 98.837248 
L 364.296335 97.392531 
L 364.473314 98.837248 
L 364.650294 97.392531 
L 364.827273 97.392531 
L 365.004252 98.837248 
L 365.181231 97.392531 
L 367.128001 97.392531 
L 367.30498 98.837248 
L 367.48196 98.837248 
L 367.658939 100.281966 
L 367.835918 98.837248 
L 368.012897 100.281966 
L 368.189876 98.837248 
L 368.366855 98.837248 
L 368.543834 100.281966 
L 368.897793 104.616118 
L 369.251751 107.505553 
L 369.42873 107.505553 
L 369.782688 111.839705 
L 369.959667 113.284423 
L 370.136646 111.839705 
L 370.313625 113.284423 
L 371.021542 113.284423 
L 371.198521 111.839705 
L 371.3755 114.72914 
L 371.552479 111.839705 
L 371.729458 113.284423 
L 371.906438 113.284423 
L 372.083417 111.839705 
L 372.260396 113.284423 
L 372.437375 111.839705 
L 372.614354 113.284423 
L 372.791333 113.284423 
L 372.968312 111.839705 
L 373.145291 113.284423 
L 373.322271 113.284423 
L 373.49925 111.839705 
L 373.676229 113.284423 
L 373.853208 111.839705 
L 374.030187 113.284423 
L 374.738104 113.284423 
L 374.915083 114.72914 
L 375.092062 113.284423 
L 376.684874 113.284423 
L 376.861853 114.72914 
L 377.038832 113.284423 
L 379.693519 113.284423 
L 379.870498 114.72914 
L 380.047477 113.284423 
L 380.578415 113.284423 
L 380.755394 114.72914 
L 380.932373 113.284423 
L 381.109352 114.72914 
L 381.286331 113.284423 
L 381.46331 114.72914 
L 381.640289 113.284423 
L 382.879143 113.284423 
L 383.056122 114.72914 
L 383.233101 113.284423 
L 383.41008 114.72914 
L 383.764039 114.72914 
L 383.941018 113.284423 
L 384.294976 113.284423 
L 384.471955 114.72914 
L 384.648934 114.72914 
L 384.825913 113.284423 
L 385.002893 114.72914 
L 385.179872 113.284423 
L 385.356851 114.72914 
L 385.710809 114.72914 
L 385.887788 113.284423 
L 386.064767 114.72914 
L 386.241746 114.72914 
L 386.418726 113.284423 
L 386.595705 114.72914 
L 387.303621 114.72914 
L 387.4806 113.284423 
L 387.657579 113.284423 
L 387.834559 114.72914 
L 388.011538 113.284423 
L 388.365496 113.284423 
L 388.542475 114.72914 
L 389.427371 114.72914 
L 389.60435 113.284423 
L 389.781329 114.72914 
L 389.958308 113.284423 
L 390.135287 114.72914 
L 390.312266 113.284423 
L 390.489245 114.72914 
L 391.197162 114.72914 
L 391.374141 113.284423 
L 391.55112 114.72914 
L 392.612995 114.72914 
L 392.789974 113.284423 
L 392.966953 114.72914 
L 397.214452 114.72914 
L 397.391431 113.284423 
L 397.56841 114.72914 
L 398.099348 114.72914 
L 398.276327 113.284423 
L 398.453306 114.72914 
L 402.523826 114.72914 
L 402.700805 113.284423 
L 402.877784 114.72914 
L 417.390072 114.72914 
L 417.567051 116.173857 
L 417.74403 113.284423 
L 417.921009 114.72914 
L 418.097988 114.72914 
L 418.274967 113.284423 
L 418.451946 114.72914 
L 418.628926 114.72914 
L 418.805905 113.284423 
L 418.982884 114.72914 
L 419.159863 114.72914 
L 419.336842 113.284423 
L 419.513821 114.72914 
L 419.867779 114.72914 
L 420.044759 113.284423 
L 420.221738 114.72914 
L 422.168508 114.72914 
L 422.345487 113.284423 
L 422.522466 114.72914 
L 422.699445 113.284423 
L 422.876425 114.72914 
L 423.053404 113.284423 
L 423.230383 114.72914 
L 423.407362 113.284423 
L 423.584341 114.72914 
L 430.486527 114.72914 
L 430.663506 116.173857 
L 430.840485 114.72914 
L 445.529752 114.72914 
L 445.529752 114.72914 
" clip-path="url(#p07fffff918)" style="fill: none; stroke: #008000; stroke-width: 1.5; stroke-linecap: square"/>
   </g>
   <g id="patch_8">
    <path d="M 276.054545 236.88 
L 276.054545 60.48 
" style="fill: none; stroke: #000000; stroke-width: 0.8; stroke-linejoin: miter; stroke-linecap: square"/>
   </g>
   <g id="patch_9">
    <path d="M 453.6 236.88 
L 453.6 60.48 
" style="fill: none; stroke: #000000; stroke-width: 0.8; stroke-linejoin: miter; stroke-linecap: square"/>
   </g>
   <g id="patch_10">
    <path d="M 276.054545 236.88 
L 453.6 236.88 
" style="fill: none; stroke: #000000; stroke-width: 0.8; stroke-linejoin: miter; stroke-linecap: square"/>
   </g>
   <g id="patch_11">
    <path d="M 276.054545 60.48 
L 453.6 60.48 
" style="fill: none; stroke: #000000; stroke-width: 0.8; stroke-linejoin: miter; stroke-linecap: square"/>
   </g>
  </g>
  <g id="axes_3">
   <g id="patch_12">
    <path d="M 63 448.56 
L 240.545455 448.56 
L 240.545455 272.16 
L 63 272.16 
z
" style="fill: #ffffff"/>
   </g>
   <g id="matplotlib.axis_5">
    <g id="xtick_9">
     <g id="line2d_24">
      <g>
       <use xlink:href="#m35631ff7c6" x="71.070248" y="448.56" style="stroke: #000000; stroke-width: 0.8"/>
      </g>
     </g>
     <g id="text_22">
      <!-- 0 -->
      <g transform="translate(67.888998 463.158437) scale(0.1 -0.1)">
       <use xlink:href="#DejaVuSans-30"/>
      </g>
     </g>
    </g>
    <g id="xtick_10">
     <g id="line2d_25">
      <g>
       <use xlink:href="#m35631ff7c6" x="115.315028" y="448.56" style="stroke: #000000; stroke-width: 0.8"/>
      </g>
     </g>
     <g id="text_23">
      <!-- 250 -->
      <g transform="translate(105.771278 463.158437) scale(0.1 -0.1)">
       <use xlink:href="#DejaVuSans-32"/>
       <use xlink:href="#DejaVuSans-35" transform="translate(63.623047 0)"/>
       <use xlink:href="#DejaVuSans-30" transform="translate(127.246094 0)"/>
      </g>
     </g>
    </g>
    <g id="xtick_11">
     <g id="line2d_26">
      <g>
       <use xlink:href="#m35631ff7c6" x="159.559809" y="448.56" style="stroke: #000000; stroke-width: 0.8"/>
      </g>
     </g>
     <g id="text_24">
      <!-- 500 -->
      <g transform="translate(150.016059 463.158437) scale(0.1 -0.1)">
       <use xlink:href="#DejaVuSans-35"/>
       <use xlink:href="#DejaVuSans-30" transform="translate(63.623047 0)"/>
       <use xlink:href="#DejaVuSans-30" transform="translate(127.246094 0)"/>
      </g>
     </g>
    </g>
    <g id="xtick_12">
     <g id="line2d_27">
      <g>
       <use xlink:href="#m35631ff7c6" x="203.804589" y="448.56" style="stroke: #000000; stroke-width: 0.8"/>
      </g>
     </g>
     <g id="text_25">
      <!-- 750 -->
      <g transform="translate(194.260839 463.158437) scale(0.1 -0.1)">
       <use xlink:href="#DejaVuSans-37"/>
       <use xlink:href="#DejaVuSans-35" transform="translate(63.623047 0)"/>
       <use xlink:href="#DejaVuSans-30" transform="translate(127.246094 0)"/>
      </g>
     </g>
    </g>
   </g>
   <g id="matplotlib.axis_6">
    <g id="ytick_14">
     <g id="line2d_28">
      <g>
       <use xlink:href="#m133f9b71a7" x="63" y="428.574383" style="stroke: #000000; stroke-width: 0.8"/>
      </g>
     </g>
     <g id="text_26">
      <!-- 0.2 -->
      <g transform="translate(40.096875 432.373601) scale(0.1 -0.1)">
       <use xlink:href="#DejaVuSans-30"/>
       <use xlink:href="#DejaVuSans-2e" transform="translate(63.623047 0)"/>
       <use xlink:href="#DejaVuSans-32" transform="translate(95.410156 0)"/>
      </g>
     </g>
    </g>
    <g id="ytick_15">
     <g id="line2d_29">
      <g>
       <use xlink:href="#m133f9b71a7" x="63" y="404.639512" style="stroke: #000000; stroke-width: 0.8"/>
      </g>
     </g>
     <g id="text_27">
      <!-- 0.4 -->
      <g transform="translate(40.096875 408.43873) scale(0.1 -0.1)">
       <use xlink:href="#DejaVuSans-30"/>
       <use xlink:href="#DejaVuSans-2e" transform="translate(63.623047 0)"/>
       <use xlink:href="#DejaVuSans-34" transform="translate(95.410156 0)"/>
      </g>
     </g>
    </g>
    <g id="ytick_16">
     <g id="line2d_30">
      <g>
       <use xlink:href="#m133f9b71a7" x="63" y="380.70464" style="stroke: #000000; stroke-width: 0.8"/>
      </g>
     </g>
     <g id="text_28">
      <!-- 0.6 -->
      <g transform="translate(40.096875 384.503859) scale(0.1 -0.1)">
       <use xlink:href="#DejaVuSans-30"/>
       <use xlink:href="#DejaVuSans-2e" transform="translate(63.623047 0)"/>
       <use xlink:href="#DejaVuSans-36" transform="translate(95.410156 0)"/>
      </g>
     </g>
    </g>
    <g id="ytick_17">
     <g id="line2d_31">
      <g>
       <use xlink:href="#m133f9b71a7" x="63" y="356.769769" style="stroke: #000000; stroke-width: 0.8"/>
      </g>
     </g>
     <g id="text_29">
      <!-- 0.8 -->
      <g transform="translate(40.096875 360.568988) scale(0.1 -0.1)">
       <use xlink:href="#DejaVuSans-30"/>
       <use xlink:href="#DejaVuSans-2e" transform="translate(63.623047 0)"/>
       <use xlink:href="#DejaVuSans-38" transform="translate(95.410156 0)"/>
      </g>
     </g>
    </g>
    <g id="ytick_18">
     <g id="line2d_32">
      <g>
       <use xlink:href="#m133f9b71a7" x="63" y="332.834898" style="stroke: #000000; stroke-width: 0.8"/>
      </g>
     </g>
     <g id="text_30">
      <!-- 1.0 -->
      <g transform="translate(40.096875 336.634117) scale(0.1 -0.1)">
       <use xlink:href="#DejaVuSans-31"/>
       <use xlink:href="#DejaVuSans-2e" transform="translate(63.623047 0)"/>
       <use xlink:href="#DejaVuSans-30" transform="translate(95.410156 0)"/>
      </g>
     </g>
    </g>
    <g id="ytick_19">
     <g id="line2d_33">
      <g>
       <use xlink:href="#m133f9b71a7" x="63" y="308.900027" style="stroke: #000000; stroke-width: 0.8"/>
      </g>
     </g>
     <g id="text_31">
      <!-- 1.2 -->
      <g transform="translate(40.096875 312.699246) scale(0.1 -0.1)">
       <use xlink:href="#DejaVuSans-31"/>
       <use xlink:href="#DejaVuSans-2e" transform="translate(63.623047 0)"/>
       <use xlink:href="#DejaVuSans-32" transform="translate(95.410156 0)"/>
      </g>
     </g>
    </g>
    <g id="ytick_20">
     <g id="line2d_34">
      <g>
       <use xlink:href="#m133f9b71a7" x="63" y="284.965156" style="stroke: #000000; stroke-width: 0.8"/>
      </g>
     </g>
     <g id="text_32">
      <!-- 1.4 -->
      <g transform="translate(40.096875 288.764375) scale(0.1 -0.1)">
       <use xlink:href="#DejaVuSans-31"/>
       <use xlink:href="#DejaVuSans-2e" transform="translate(63.623047 0)"/>
       <use xlink:href="#DejaVuSans-34" transform="translate(95.410156 0)"/>
      </g>
     </g>
    </g>
   </g>
   <g id="line2d_35">
    <path d="M 71.070248 336.425129 
L 71.247227 335.228385 
L 71.778164 335.228385 
L 71.955144 336.425129 
L 72.132123 335.228385 
L 72.309102 336.425129 
L 73.017018 336.425129 
L 73.193997 335.228385 
L 73.370977 336.425129 
L 73.547956 336.425129 
L 73.724935 335.228385 
L 73.901914 336.425129 
L 74.60983 336.425129 
L 74.786809 335.228385 
L 74.963789 336.425129 
L 75.140768 335.228385 
L 75.317747 335.228385 
L 75.494726 336.425129 
L 75.671705 335.228385 
L 75.848684 336.425129 
L 76.025663 335.228385 
L 76.202642 335.228385 
L 76.379622 338.818616 
L 76.556601 337.621872 
L 76.73358 338.818616 
L 76.910559 338.818616 
L 77.087538 341.212103 
L 77.264517 340.01536 
L 77.441496 337.621872 
L 77.618475 340.01536 
L 77.795455 332.834898 
L 77.972434 341.212103 
L 78.326392 341.212103 
L 78.503371 335.228385 
L 78.68035 341.212103 
L 78.857329 340.01536 
L 79.034308 340.01536 
L 79.211288 335.228385 
L 79.388267 340.01536 
L 79.565246 348.392564 
L 79.742225 338.818616 
L 79.919204 337.621872 
L 80.096183 340.01536 
L 80.450141 340.01536 
L 80.62712 338.818616 
L 80.8041 340.01536 
L 80.981079 338.818616 
L 81.335037 341.212103 
L 81.512016 320.867463 
L 81.688995 343.60559 
L 81.865974 340.01536 
L 82.042953 340.01536 
L 82.219933 336.425129 
L 82.396912 342.408847 
L 82.573891 336.425129 
L 82.75087 338.818616 
L 82.927849 335.228385 
L 83.104828 326.85118 
L 83.281807 340.01536 
L 83.458786 337.621872 
L 83.635766 342.408847 
L 83.812745 342.408847 
L 83.989724 337.621872 
L 84.166703 344.802334 
L 84.343682 342.408847 
L 84.520661 343.60559 
L 84.69764 342.408847 
L 84.874619 342.408847 
L 85.051599 344.802334 
L 85.405557 344.802334 
L 85.582536 342.408847 
L 85.759515 343.60559 
L 85.936494 345.999077 
L 86.113473 340.01536 
L 86.290452 343.60559 
L 86.467431 341.212103 
L 86.644411 342.408847 
L 86.82139 344.802334 
L 86.998369 343.60559 
L 87.175348 347.195821 
L 87.352327 347.195821 
L 87.706285 343.60559 
L 87.883264 347.195821 
L 88.060244 345.999077 
L 88.237223 353.179539 
L 88.414202 341.212103 
L 88.591181 343.60559 
L 88.945139 341.212103 
L 89.299097 347.195821 
L 89.476077 311.293514 
L 89.653056 345.999077 
L 90.007014 342.408847 
L 90.183993 341.212103 
L 90.360972 341.212103 
L 90.537951 342.408847 
L 90.71493 341.212103 
L 90.89191 334.031642 
L 91.068889 344.802334 
L 91.422847 337.621872 
L 91.599826 340.01536 
L 91.776805 344.802334 
L 91.953784 344.802334 
L 92.130763 340.01536 
L 92.484722 343.60559 
L 92.661701 338.818616 
L 92.83868 357.966513 
L 93.015659 338.818616 
L 93.192638 341.212103 
L 93.369617 328.047924 
L 93.546596 355.573026 
L 93.900555 341.212103 
L 94.077534 344.802334 
L 94.254513 343.60559 
L 94.431492 338.818616 
L 94.608471 340.01536 
L 94.78545 342.408847 
L 95.139408 337.621872 
L 95.316388 342.408847 
L 95.493367 341.212103 
L 95.670346 341.212103 
L 96.024304 343.60559 
L 96.201283 343.60559 
L 96.378262 348.392564 
L 96.555241 337.621872 
L 96.732221 337.621872 
L 96.9092 336.425129 
L 97.086179 334.031642 
L 97.263158 335.228385 
L 97.440137 337.621872 
L 97.617116 331.638155 
L 97.794095 340.01536 
L 97.971074 341.212103 
L 98.148054 348.392564 
L 98.325033 334.031642 
L 98.502012 335.228385 
L 98.85597 344.802334 
L 99.032949 377.11441 
L 99.209928 350.786052 
L 99.386907 379.507897 
L 99.563886 350.786052 
L 99.740866 390.278589 
L 99.917845 399.852537 
L 100.094824 324.457693 
L 100.271803 355.573026 
L 100.448782 349.589308 
L 100.625761 368.737205 
L 100.80274 348.392564 
L 100.979719 348.392564 
L 101.156699 351.982795 
L 101.333678 347.195821 
L 101.510657 348.392564 
L 101.687636 348.392564 
L 101.864615 347.195821 
L 102.041594 348.392564 
L 102.395552 348.392564 
L 102.572532 349.589308 
L 102.749511 347.195821 
L 103.103469 347.195821 
L 103.280448 348.392564 
L 103.457427 343.60559 
L 103.811385 345.999077 
L 103.988365 345.999077 
L 104.165344 342.408847 
L 104.342323 347.195821 
L 104.519302 345.999077 
L 104.87326 345.999077 
L 105.050239 344.802334 
L 105.758156 344.802334 
L 105.935135 343.60559 
L 106.112114 345.999077 
L 106.289093 344.802334 
L 106.466072 344.802334 
L 106.643051 348.392564 
L 106.82003 344.802334 
L 106.99701 344.802334 
L 107.173989 347.195821 
L 107.527947 347.195821 
L 107.704926 345.999077 
L 107.881905 345.999077 
L 108.058884 344.802334 
L 108.235863 345.999077 
L 108.589822 343.60559 
L 108.766801 344.802334 
L 109.120759 344.802334 
L 109.297738 343.60559 
L 109.474717 345.999077 
L 109.828676 343.60559 
L 110.005655 344.802334 
L 110.182634 344.802334 
L 110.359613 345.999077 
L 110.536592 345.999077 
L 110.713571 342.408847 
L 110.89055 361.556744 
L 111.421488 338.818616 
L 111.598467 375.917666 
L 111.775446 280.178182 
L 112.129404 374.720923 
L 112.306383 343.60559 
L 112.483362 367.540461 
L 112.660341 365.146974 
L 112.837321 282.571669 
L 113.191279 335.228385 
L 113.368258 319.670719 
L 113.545237 328.047924 
L 113.722216 311.293514 
L 113.899195 386.688358 
L 114.076174 330.441411 
L 114.253154 373.524179 
L 114.430133 336.425129 
L 114.784091 361.556744 
L 114.96107 342.408847 
L 115.138049 350.786052 
L 115.315028 383.098128 
L 115.492007 353.179539 
L 115.668987 362.753487 
L 115.845966 350.786052 
L 116.022945 365.146974 
L 116.199924 361.556744 
L 116.376903 369.933948 
L 116.553882 329.244668 
L 116.730861 335.228385 
L 116.90784 363.950231 
L 117.084819 324.457693 
L 117.261799 342.408847 
L 117.438778 347.195821 
L 117.615757 323.26095 
L 117.792736 331.638155 
L 117.969715 355.573026 
L 118.146694 328.047924 
L 118.323673 354.376282 
L 118.500652 331.638155 
L 118.677632 336.425129 
L 118.854611 386.688358 
L 119.03159 350.786052 
L 119.208569 357.966513 
L 119.385548 359.163256 
L 119.562527 440.541818 
L 119.739506 341.212103 
L 119.916485 323.26095 
L 120.093465 340.01536 
L 120.270444 334.031642 
L 120.447423 335.228385 
L 120.624402 344.802334 
L 120.801381 345.999077 
L 120.97836 355.573026 
L 121.155339 345.999077 
L 121.332318 359.163256 
L 121.863256 319.670719 
L 122.040235 351.982795 
L 122.217214 361.556744 
L 122.394193 355.573026 
L 122.571172 338.818616 
L 122.748151 343.60559 
L 122.92513 329.244668 
L 123.10211 341.212103 
L 123.279089 340.01536 
L 123.456068 331.638155 
L 123.633047 314.883745 
L 123.810026 323.26095 
L 123.987005 325.654437 
L 124.163984 337.621872 
L 124.340963 334.031642 
L 124.517943 328.047924 
L 124.694922 351.982795 
L 125.04888 332.834898 
L 125.225859 338.818616 
L 125.402838 336.425129 
L 125.579817 341.212103 
L 125.756796 337.621872 
L 125.933776 331.638155 
L 126.110755 365.146974 
L 126.287734 336.425129 
L 126.464713 345.999077 
L 126.641692 307.703284 
L 126.818671 343.60559 
L 127.172629 329.244668 
L 127.349609 343.60559 
L 127.526588 332.834898 
L 127.703567 340.01536 
L 128.234504 323.26095 
L 128.588462 335.228385 
L 128.765441 350.786052 
L 128.942421 340.01536 
L 129.473358 340.01536 
L 129.650337 341.212103 
L 129.827316 344.802334 
L 130.004295 338.818616 
L 130.181274 338.818616 
L 130.358254 341.212103 
L 130.535233 341.212103 
L 130.712212 334.031642 
L 130.889191 332.834898 
L 131.06617 348.392564 
L 131.243149 322.064206 
L 131.597107 336.425129 
L 131.774087 330.441411 
L 131.951066 332.834898 
L 132.128045 332.834898 
L 132.305024 335.228385 
L 132.482003 335.228385 
L 132.658982 329.244668 
L 132.835961 336.425129 
L 133.01294 334.031642 
L 133.18992 340.01536 
L 133.543878 334.031642 
L 133.897836 336.425129 
L 134.074815 336.425129 
L 134.251794 335.228385 
L 134.428773 335.228385 
L 134.605753 336.425129 
L 134.782732 335.228385 
L 135.490648 335.228385 
L 135.667627 334.031642 
L 136.021585 336.425129 
L 136.198565 334.031642 
L 136.375544 335.228385 
L 136.729502 335.228385 
L 136.906481 336.425129 
L 137.08346 335.228385 
L 137.260439 336.425129 
L 137.437418 335.228385 
L 137.614398 336.425129 
L 137.791377 335.228385 
L 138.145335 335.228385 
L 138.322314 337.621872 
L 138.499293 336.425129 
L 139.384189 336.425129 
L 139.561168 335.228385 
L 139.738147 335.228385 
L 139.915126 336.425129 
L 140.092105 335.228385 
L 140.269084 336.425129 
L 140.446064 335.228385 
L 140.623043 336.425129 
L 140.800022 335.228385 
L 140.977001 335.228385 
L 141.15398 336.425129 
L 141.330959 335.228385 
L 141.507938 336.425129 
L 141.684917 336.425129 
L 141.861896 337.621872 
L 142.038876 336.425129 
L 142.215855 334.031642 
L 142.392834 336.425129 
L 142.569813 335.228385 
L 142.746792 336.425129 
L 142.923771 336.425129 
L 143.10075 335.228385 
L 143.277729 340.01536 
L 143.454709 336.425129 
L 143.631688 336.425129 
L 143.808667 335.228385 
L 144.162625 335.228385 
L 144.339604 336.425129 
L 144.516583 335.228385 
L 144.693562 336.425129 
L 144.870542 335.228385 
L 145.047521 336.425129 
L 145.2245 336.425129 
L 145.401479 335.228385 
L 145.578458 336.425129 
L 145.755437 336.425129 
L 145.932416 335.228385 
L 146.109395 335.228385 
L 146.463354 337.621872 
L 146.640333 335.228385 
L 146.817312 336.425129 
L 147.879187 336.425129 
L 148.056166 335.228385 
L 148.233145 336.425129 
L 151.595748 336.425129 
L 151.772727 335.228385 
L 151.949706 336.425129 
L 153.896477 336.425129 
L 154.250435 334.031642 
L 154.427414 335.228385 
L 154.604393 332.834898 
L 154.781372 336.425129 
L 154.958351 334.031642 
L 155.135331 336.425129 
L 155.489289 336.425129 
L 155.666268 335.228385 
L 155.843247 331.638155 
L 156.197205 335.228385 
L 156.374184 336.425129 
L 156.728143 334.031642 
L 156.905122 336.425129 
L 157.082101 335.228385 
L 157.25908 335.228385 
L 157.436059 336.425129 
L 157.613038 335.228385 
L 157.966997 335.228385 
L 158.143976 336.425129 
L 158.320955 334.031642 
L 158.497934 336.425129 
L 158.674913 336.425129 
L 158.851892 335.228385 
L 159.028871 336.425129 
L 159.20585 334.031642 
L 159.382829 335.228385 
L 159.559809 335.228385 
L 159.736788 337.621872 
L 159.913767 335.228385 
L 160.090746 336.425129 
L 160.267725 336.425129 
L 160.444704 335.228385 
L 160.621683 335.228385 
L 160.798662 336.425129 
L 160.975642 335.228385 
L 161.152621 335.228385 
L 161.3296 336.425129 
L 161.506579 335.228385 
L 162.391475 335.228385 
L 162.568454 336.425129 
L 162.745433 335.228385 
L 162.922412 336.425129 
L 163.099391 335.228385 
L 163.27637 336.425129 
L 163.453349 335.228385 
L 163.630328 336.425129 
L 163.807308 335.228385 
L 163.984287 336.425129 
L 164.161266 335.228385 
L 164.338245 335.228385 
L 164.515224 336.425129 
L 164.692203 336.425129 
L 164.869182 335.228385 
L 165.931057 335.228385 
L 166.108036 336.425129 
L 166.285015 335.228385 
L 166.461994 336.425129 
L 166.638973 335.228385 
L 173.187201 335.228385 
L 173.36418 336.425129 
L 173.541159 335.228385 
L 173.718138 336.425129 
L 173.895117 335.228385 
L 174.249076 335.228385 
L 174.426055 336.425129 
L 174.603034 335.228385 
L 174.780013 336.425129 
L 174.956992 335.228385 
L 175.133971 336.425129 
L 175.48793 336.425129 
L 175.664909 335.228385 
L 177.4347 335.228385 
L 177.611679 336.425129 
L 178.142616 336.425129 
L 178.319595 335.228385 
L 181.50522 335.228385 
L 181.682199 336.425129 
L 181.859178 335.228385 
L 183.805948 335.228385 
L 183.982927 336.425129 
L 184.159906 335.228385 
L 187.345531 335.228385 
L 187.52251 336.425129 
L 187.699489 335.228385 
L 188.407405 335.228385 
L 188.584385 336.425129 
L 188.761364 335.228385 
L 190.708134 335.228385 
L 190.885113 336.425129 
L 191.062092 335.228385 
L 191.239071 336.425129 
L 191.41605 335.228385 
L 197.964278 335.228385 
L 198.141257 336.425129 
L 198.318236 335.228385 
L 198.495215 335.228385 
L 198.672194 336.425129 
L 198.849174 335.228385 
L 199.026153 335.228385 
L 199.203132 336.425129 
L 199.380111 335.228385 
L 200.441986 335.228385 
L 200.618965 336.425129 
L 200.795944 335.228385 
L 201.680839 335.228385 
L 201.857819 336.425129 
L 202.034798 335.228385 
L 203.273652 335.228385 
L 203.450631 336.425129 
L 203.62761 335.228385 
L 206.813234 335.228385 
L 206.990213 336.425129 
L 207.167192 335.228385 
L 207.344171 336.425129 
L 207.521151 335.228385 
L 208.406046 335.228385 
L 208.583025 336.425129 
L 208.760004 335.228385 
L 209.467921 335.228385 
L 209.6449 336.425129 
L 209.821879 335.228385 
L 209.998858 336.425129 
L 210.175837 335.228385 
L 210.352816 336.425129 
L 210.529796 335.228385 
L 210.706775 336.425129 
L 210.883754 335.228385 
L 211.945629 335.228385 
L 212.122608 336.425129 
L 212.299587 335.228385 
L 212.476566 335.228385 
L 212.653545 336.425129 
L 212.830524 335.228385 
L 214.069378 335.228385 
L 214.246357 336.425129 
L 214.423336 335.228385 
L 215.839169 335.228385 
L 216.016148 336.425129 
L 216.193127 335.228385 
L 217.255002 335.228385 
L 217.431981 336.425129 
L 217.60896 335.228385 
L 223.272292 335.228385 
L 223.449271 336.425129 
L 223.626251 335.228385 
L 229.466562 335.228385 
L 229.643541 336.425129 
L 229.82052 335.228385 
L 230.351457 335.228385 
L 230.528436 336.425129 
L 230.705415 336.425129 
L 230.882395 335.228385 
L 232.475207 335.228385 
L 232.475207 335.228385 
" clip-path="url(#pc40b85e3fc)" style="fill: none; stroke: #0000ff; stroke-width: 1.5; stroke-linecap: square"/>
   </g>
   <g id="patch_13">
    <path d="M 63 448.56 
L 63 272.16 
" style="fill: none; stroke: #000000; stroke-width: 0.8; stroke-linejoin: miter; stroke-linecap: square"/>
   </g>
   <g id="patch_14">
    <path d="M 240.545455 448.56 
L 240.545455 272.16 
" style="fill: none; stroke: #000000; stroke-width: 0.8; stroke-linejoin: miter; stroke-linecap: square"/>
   </g>
   <g id="patch_15">
    <path d="M 63 448.56 
L 240.545455 448.56 
" style="fill: none; stroke: #000000; stroke-width: 0.8; stroke-linejoin: miter; stroke-linecap: square"/>
   </g>
   <g id="patch_16">
    <path d="M 63 272.16 
L 240.545455 272.16 
" style="fill: none; stroke: #000000; stroke-width: 0.8; stroke-linejoin: miter; stroke-linecap: square"/>
   </g>
  </g>
  <g id="axes_4">
   <g id="patch_17">
    <path d="M 276.054545 448.56 
L 453.6 448.56 
L 453.6 272.16 
L 276.054545 272.16 
z
" style="fill: #ffffff"/>
   </g>
   <g id="matplotlib.axis_7">
    <g id="xtick_13">
     <g id="line2d_36">
      <g>
       <use xlink:href="#m35631ff7c6" x="276.054545" y="448.56" style="stroke: #000000; stroke-width: 0.8"/>
      </g>
     </g>
     <g id="text_33">
      <!-- 0.0 -->
      <g transform="translate(268.102983 463.158437) scale(0.1 -0.1)">
       <use xlink:href="#DejaVuSans-30"/>
       <use xlink:href="#DejaVuSans-2e" transform="translate(63.623047 0)"/>
       <use xlink:href="#DejaVuSans-30" transform="translate(95.410156 0)"/>
      </g>
     </g>
    </g>
    <g id="xtick_14">
     <g id="line2d_37">
      <g>
       <use xlink:href="#m35631ff7c6" x="311.563636" y="448.56" style="stroke: #000000; stroke-width: 0.8"/>
      </g>
     </g>
     <g id="text_34">
      <!-- 0.2 -->
      <g transform="translate(303.612074 463.158437) scale(0.1 -0.1)">
       <use xlink:href="#DejaVuSans-30"/>
       <use xlink:href="#DejaVuSans-2e" transform="translate(63.623047 0)"/>
       <use xlink:href="#DejaVuSans-32" transform="translate(95.410156 0)"/>
      </g>
     </g>
    </g>
    <g id="xtick_15">
     <g id="line2d_38">
      <g>
       <use xlink:href="#m35631ff7c6" x="347.072727" y="448.56" style="stroke: #000000; stroke-width: 0.8"/>
      </g>
     </g>
     <g id="text_35">
      <!-- 0.4 -->
      <g transform="translate(339.121165 463.158437) scale(0.1 -0.1)">
       <use xlink:href="#DejaVuSans-30"/>
       <use xlink:href="#DejaVuSans-2e" transform="translate(63.623047 0)"/>
       <use xlink:href="#DejaVuSans-34" transform="translate(95.410156 0)"/>
      </g>
     </g>
    </g>
    <g id="xtick_16">
     <g id="line2d_39">
      <g>
       <use xlink:href="#m35631ff7c6" x="382.581818" y="448.56" style="stroke: #000000; stroke-width: 0.8"/>
      </g>
     </g>
     <g id="text_36">
      <!-- 0.6 -->
      <g transform="translate(374.630256 463.158437) scale(0.1 -0.1)">
       <use xlink:href="#DejaVuSans-30"/>
       <use xlink:href="#DejaVuSans-2e" transform="translate(63.623047 0)"/>
       <use xlink:href="#DejaVuSans-36" transform="translate(95.410156 0)"/>
      </g>
     </g>
    </g>
    <g id="xtick_17">
     <g id="line2d_40">
      <g>
       <use xlink:href="#m35631ff7c6" x="418.090909" y="448.56" style="stroke: #000000; stroke-width: 0.8"/>
      </g>
     </g>
     <g id="text_37">
      <!-- 0.8 -->
      <g transform="translate(410.139347 463.158437) scale(0.1 -0.1)">
       <use xlink:href="#DejaVuSans-30"/>
       <use xlink:href="#DejaVuSans-2e" transform="translate(63.623047 0)"/>
       <use xlink:href="#DejaVuSans-38" transform="translate(95.410156 0)"/>
      </g>
     </g>
    </g>
    <g id="xtick_18">
     <g id="line2d_41">
      <g>
       <use xlink:href="#m35631ff7c6" x="453.6" y="448.56" style="stroke: #000000; stroke-width: 0.8"/>
      </g>
     </g>
     <g id="text_38">
      <!-- 1.0 -->
      <g transform="translate(445.648437 463.158437) scale(0.1 -0.1)">
       <use xlink:href="#DejaVuSans-31"/>
       <use xlink:href="#DejaVuSans-2e" transform="translate(63.623047 0)"/>
       <use xlink:href="#DejaVuSans-30" transform="translate(95.410156 0)"/>
      </g>
     </g>
    </g>
   </g>
   <g id="matplotlib.axis_8">
    <g id="ytick_21">
     <g id="line2d_42">
      <g>
       <use xlink:href="#m133f9b71a7" x="276.054545" y="448.56" style="stroke: #000000; stroke-width: 0.8"/>
      </g>
     </g>
     <g id="text_39">
      <!-- 0.0 -->
      <g transform="translate(253.15142 452.359219) scale(0.1 -0.1)">
       <use xlink:href="#DejaVuSans-30"/>
       <use xlink:href="#DejaVuSans-2e" transform="translate(63.623047 0)"/>
       <use xlink:href="#DejaVuSans-30" transform="translate(95.410156 0)"/>
      </g>
     </g>
    </g>
    <g id="ytick_22">
     <g id="line2d_43">
      <g>
       <use xlink:href="#m133f9b71a7" x="276.054545" y="413.28" style="stroke: #000000; stroke-width: 0.8"/>
      </g>
     </g>
     <g id="text_40">
      <!-- 0.2 -->
      <g transform="translate(253.15142 417.079219) scale(0.1 -0.1)">
       <use xlink:href="#DejaVuSans-30"/>
       <use xlink:href="#DejaVuSans-2e" transform="translate(63.623047 0)"/>
       <use xlink:href="#DejaVuSans-32" transform="translate(95.410156 0)"/>
      </g>
     </g>
    </g>
    <g id="ytick_23">
     <g id="line2d_44">
      <g>
       <use xlink:href="#m133f9b71a7" x="276.054545" y="378" style="stroke: #000000; stroke-width: 0.8"/>
      </g>
     </g>
     <g id="text_41">
      <!-- 0.4 -->
      <g transform="translate(253.15142 381.799219) scale(0.1 -0.1)">
       <use xlink:href="#DejaVuSans-30"/>
       <use xlink:href="#DejaVuSans-2e" transform="translate(63.623047 0)"/>
       <use xlink:href="#DejaVuSans-34" transform="translate(95.410156 0)"/>
      </g>
     </g>
    </g>
    <g id="ytick_24">
     <g id="line2d_45">
      <g>
       <use xlink:href="#m133f9b71a7" x="276.054545" y="342.72" style="stroke: #000000; stroke-width: 0.8"/>
      </g>
     </g>
     <g id="text_42">
      <!-- 0.6 -->
      <g transform="translate(253.15142 346.519219) scale(0.1 -0.1)">
       <use xlink:href="#DejaVuSans-30"/>
       <use xlink:href="#DejaVuSans-2e" transform="translate(63.623047 0)"/>
       <use xlink:href="#DejaVuSans-36" transform="translate(95.410156 0)"/>
      </g>
     </g>
    </g>
    <g id="ytick_25">
     <g id="line2d_46">
      <g>
       <use xlink:href="#m133f9b71a7" x="276.054545" y="307.44" style="stroke: #000000; stroke-width: 0.8"/>
      </g>
     </g>
     <g id="text_43">
      <!-- 0.8 -->
      <g transform="translate(253.15142 311.239219) scale(0.1 -0.1)">
       <use xlink:href="#DejaVuSans-30"/>
       <use xlink:href="#DejaVuSans-2e" transform="translate(63.623047 0)"/>
       <use xlink:href="#DejaVuSans-38" transform="translate(95.410156 0)"/>
      </g>
     </g>
    </g>
    <g id="ytick_26">
     <g id="line2d_47">
      <g>
       <use xlink:href="#m133f9b71a7" x="276.054545" y="272.16" style="stroke: #000000; stroke-width: 0.8"/>
      </g>
     </g>
     <g id="text_44">
      <!-- 1.0 -->
      <g transform="translate(253.15142 275.959219) scale(0.1 -0.1)">
       <use xlink:href="#DejaVuSans-31"/>
       <use xlink:href="#DejaVuSans-2e" transform="translate(63.623047 0)"/>
       <use xlink:href="#DejaVuSans-30" transform="translate(95.410156 0)"/>
      </g>
     </g>
    </g>
   </g>
   <g id="patch_18">
    <path d="M 276.054545 448.56 
L 276.054545 272.16 
" style="fill: none; stroke: #000000; stroke-width: 0.8; stroke-linejoin: miter; stroke-linecap: square"/>
   </g>
   <g id="patch_19">
    <path d="M 453.6 448.56 
L 453.6 272.16 
" style="fill: none; stroke: #000000; stroke-width: 0.8; stroke-linejoin: miter; stroke-linecap: square"/>
   </g>
   <g id="patch_20">
    <path d="M 276.054545 448.56 
L 453.6 448.56 
" style="fill: none; stroke: #000000; stroke-width: 0.8; stroke-linejoin: miter; stroke-linecap: square"/>
   </g>
   <g id="patch_21">
    <path d="M 276.054545 272.16 
L 453.6 272.16 
" style="fill: none; stroke: #000000; stroke-width: 0.8; stroke-linejoin: miter; stroke-linecap: square"/>
   </g>
   <g id="legend_1">
    <g id="patch_22">
     <path d="M 442.6 285.16 
L 446.6 285.16 
Q 448.6 285.16 448.6 283.16 
L 448.6 279.16 
Q 448.6 277.16 446.6 277.16 
L 442.6 277.16 
Q 440.6 277.16 440.6 279.16 
L 440.6 283.16 
Q 440.6 285.16 442.6 285.16 
z
" style="fill: #ffffff; opacity: 0.8; stroke: #cccccc; stroke-linejoin: miter"/>
    </g>
   </g>
  </g>
 </g>
 <defs>
  <clipPath id="pa1b9de6b0f">
   <rect x="63" y="60.48" width="177.545455" height="176.4"/>
  </clipPath>
  <clipPath id="p07fffff918">
   <rect x="276.054545" y="60.48" width="177.545455" height="176.4"/>
  </clipPath>
  <clipPath id="pc40b85e3fc">
   <rect x="63" y="272.16" width="177.545455" height="176.4"/>
  </clipPath>
 </defs>
</svg>
